<svg width="171" height="171" viewBox="0 0 171 171" fill="none" xmlns="http://www.w3.org/2000/svg">
<path d="M152 85.2632C152 66.7895 145.546 51.1168 132.639 38.2453C119.738 25.38 104.025 18.9474 85.5 18.9474V0C97.375 0 108.499 2.24842 118.873 6.74526C129.241 11.2484 138.266 17.3305 145.949 24.9916C153.625 32.6463 159.72 41.6463 164.236 51.9916C168.745 62.3305 171 73.4211 171 85.2632H152ZM114 85.2632C114 77.3684 111.229 70.6579 105.688 65.1316C100.146 59.6053 93.4167 56.8421 85.5 56.8421V37.8947C98.6417 37.8947 109.845 42.5116 119.111 51.7453C128.37 60.9853 133 72.1579 133 85.2632H114ZM161.025 171C140.6 171 120.691 166.5 101.299 157.5C81.8995 148.5 64.7203 136.5 49.761 121.5C34.7953 106.5 22.762 89.3274 13.661 69.9821C4.55367 50.6432 0 30.7895 0 10.4211V5.44737C0 3.71053 0.158333 2.05263 0.475 0.473684H56.05L64.8375 48.0789L37.7625 75.3158C44.4125 86.6842 52.7662 97.3421 62.8235 107.289C72.8745 117.237 83.9167 125.842 95.95 133.105L123.5 105.632L171 115.105V170.526C169.417 170.684 167.754 170.804 166.013 170.886C164.271 170.962 162.608 171 161.025 171Z" fill="#FEFEFE"/>
</svg>
