<svg width="206" height="206" viewBox="0 0 206 206" fill="none" xmlns="http://www.w3.org/2000/svg">
<path d="M103 0C159.887 0 206 46.1131 206 103C206 159.887 159.887 206 103 206C85.469 206.026 68.224 201.557 52.9112 193.022L49.7697 191.189L18.5401 200.376C16.8406 200.877 15.0414 200.935 13.313 200.546C11.5846 200.156 9.9843 199.332 8.6638 198.151C7.3433 196.97 6.34637 195.471 5.7675 193.796C5.18864 192.122 5.04702 190.327 5.35609 188.583L5.62389 187.46L14.8115 156.23C5.09816 140.176 -0.0248646 121.764 9.07382e-05 103C9.07382e-05 46.1131 46.1132 0 103 0ZM103 20.6C88.2466 20.5973 73.7631 24.5558 61.0619 32.062C48.3607 39.5682 37.9077 50.3468 30.7946 63.2723C23.6815 76.1977 20.1692 90.7959 20.6244 105.542C21.0796 120.289 25.4856 134.642 33.3824 147.105C35.4218 150.318 36.2973 154.273 35.6072 158.198L35.2055 159.877L30.6632 175.337L46.1235 170.795C50.5834 169.476 55.2184 170.28 58.8955 172.618C69.6932 179.455 81.9334 183.686 94.6482 184.978C107.363 186.27 120.204 184.586 132.156 180.06C144.108 175.534 154.844 168.29 163.514 158.901C172.185 149.511 178.552 138.234 182.113 125.96C185.674 113.686 186.331 100.751 184.033 88.1793C181.734 75.6074 176.542 63.7426 168.868 53.5227C161.194 43.3027 151.248 35.008 139.817 29.294C128.385 23.5801 115.78 20.6036 103 20.6ZM73.1507 53.3952C74.291 52.9013 75.5403 52.7129 76.7756 52.8483C78.0108 52.9838 79.1896 53.4385 80.1959 54.1677C85.3871 57.9581 89.5071 63.0463 93.0503 68.0109L96.4183 72.8931L97.9942 75.2106C98.9035 76.5401 99.3498 78.132 99.2642 79.7404C99.1785 81.3488 98.5657 82.8843 97.5204 84.1098L96.7479 84.8926L87.2307 91.9584C86.7727 92.29 86.4504 92.7764 86.3235 93.3276C86.1966 93.8787 86.2737 94.4571 86.5407 94.9556C88.7037 98.8696 92.525 104.71 96.9127 109.098C101.311 113.485 107.419 117.564 111.601 119.964C112.507 120.479 113.599 120.314 114.34 119.645L114.732 119.181L120.922 109.757C122.058 108.243 123.737 107.228 125.605 106.924C127.474 106.621 129.387 107.053 130.944 108.129L136.537 112.033C142.099 115.999 147.445 120.263 151.678 125.67C152.465 126.684 152.965 127.892 153.127 129.165C153.288 130.439 153.104 131.733 152.595 132.911C148.516 142.428 138.185 150.534 127.452 150.143L125.815 150.04L123.847 149.855C123.476 149.811 123.105 149.763 122.735 149.71L120.283 149.298C110.766 147.506 95.5119 142.109 79.7015 126.309C63.9013 110.498 58.5041 95.244 56.7119 85.7269L56.2999 83.2755L56.0424 81.1331L55.9085 79.3306C55.8922 79.0732 55.8784 78.8157 55.8673 78.5581C55.4759 67.8049 63.6232 57.474 73.1507 53.3952Z" fill="#FEFEFE"/>
</svg>
